:FULLY-SPECIFIED
:FORCE-ALL-JOINTS-BE-3DOF
:DEGREES
1835
root 6.93846 13.8801 27.7495 1077.37 56.0145 357.388
lfemur -52.732 21.0318 2.02285
ltibia 51.1212 0 0
lfoot 6.29432 -8.22772 0
ltoes -7.08037 0 0
rfemur 6.69685 -3.35855 17.1976
rtibia 51.5106 0 0
rfoot -30.8868 -28.5035 0
rtoes -28.0321 0 0
lowerback 14.0088 2.83578 7.86442
upperback -0.101457 5.56129 4.63118
thorax -7.72768 2.52314 -0.587385
lowerneck -4.9668 11.0262 3.5741
upperneck 8.27463 14.7852 -2.82017
head 3.74016 7.3618 -0.76227
lclavicle -1.35142e-14 -1.56298e-14 0
lhumerus 82.9642 19.0835 104.993
lradius -5.5035 0 0
lwrist -93.9919 0 0
lhand -38.7931 45.7688 0
lfingers 7.12502 0 0
lthumb -11.8053 75.5863 0
rclavicle -1.35142e-14 -1.56298e-14 0
rhumerus -82.6662 9.75263 -86.4413
rradius 136.987 0 0
rwrist -185.329 0 0
rhand -77.8317 -327.666 0
rfingers 7.12502 0 0
rthumb -49.0834 286.024 0
1836
root 6.98381 13.8703 27.7577 1076.64 55.7326 356.409
lfemur -52.9918 21.703 2.01151
ltibia 52.4789 0 0
lfoot 5.27151 -8.35274 0
ltoes -8.36377 0 0
rfemur 6.71144 -3.30641 17.1855
rtibia 51.1423 0 0
rfoot -30.5471 -28.6749 0
rtoes -28.2745 0 0
lowerback 14.0089 2.98112 7.79574
upperback -0.136724 5.74866 4.66738
thorax -7.76953 2.61597 -0.549297
lowerneck -4.80461 11.1931 3.73451
upperneck 8.16744 15.0132 -2.97146
head 3.72256 7.47385 -0.834062
lclavicle -1.47157e-14 -1.81181e-14 0
lhumerus 82.0745 18.998 105.296
lradius -4.77694 0 0
lwrist -93.9473 0 0
lhand -38.3339 45.4717 0
lfingers 7.12502 0 0
lthumb -11.3621 75.2982 0
rclavicle -1.47157e-14 -1.81181e-14 0
rhumerus -82.402 9.9081 -86.4033
rradius 136.556 0 0
rwrist -182.067 0 0
rhand -76.6267 -335.046 0
rfingers 7.12502 0 0
rthumb -47.9409 286.394 0
1837
root 7.02408 13.8612 27.7665 1075.76 55.45 355.26
lfemur -53.2499 22.3999 1.99679
ltibia 53.9296 0 0
lfoot 4.18264 -8.46406 0
ltoes -9.73088 0 0
rfemur 6.6972 -3.2781 17.1817
rtibia 50.7579 0 0
rfoot -30.1767 -28.8512 0
rtoes -28.5147 0 0
lowerback 14.0092 3.13686 7.71682
upperback -0.174689 5.94811 4.70243
thorax -7.81494 2.71493 -0.509339
lowerneck -4.63206 11.355 3.89304
upperneck 8.05106 15.2348 -3.11806
head 3.70342 7.58274 -0.904927
lclavicle -1.60414e-14 -2.07243e-14 0
lhumerus 81.0156 18.8764 105.615
lradius -3.92478 0 0
lwrist -93.8122 0 0
lhand -37.8303 45.1457 0
lfingers 7.12502 0 0
lthumb -10.876 74.9815 0
rclavicle -1.60414e-14 -2.07243e-14 0
rhumerus -82.0427 10.0665 -86.333
rradius 136.024 0 0
rwrist -178.469 0 0
rhand -75.3008 -342.584 0
rfingers 7.12502 0 0
rthumb -46.6833 286.513 0
1838
root 7.05906 13.8529 27.7758 1074.71 55.1669 353.934
lfemur -53.5062 23.123 1.97858
ltibia 55.4755 0 0
lfoot 3.02602 -8.56104 0
ltoes -11.1838 0 0
rfemur 6.65309 -3.27455 17.1865
rtibia 50.3571 0 0
rfoot -29.7746 -29.0325 0
rtoes -28.7523 0 0
lowerback 14.0098 3.30327 7.62735
upperback -0.215427 6.15996 4.73627
thorax -7.86402 2.82017 -0.467472
lowerneck -4.44886 11.5116 4.04949
upperneck 7.92525 15.4494 -3.25969
head 3.68269 7.68829 -0.974784
lclavicle -1.74955e-14 -2.34506e-14 0
lhumerus 79.7819 18.7172 105.952
lradius -2.94297 0 0
lwrist -93.5833 0 0
lhand -37.2812 44.7898 0
lfingers 7.12502 0 0
lthumb -10.346 74.6353 0
rclavicle -1.74955e-14 -2.34506e-14 0
rhumerus -81.5852 10.2278 -86.2292
rradius 135.386 0 0
rwrist -174.524 0 0
rhand -73.8503 -350.28 0
rfingers 7.12502 0 0
rthumb -45.3067 286.372 0
1839
root 7.08852 13.8455 27.7857 1073.49 54.8834 352.426
lfemur -53.7604 23.8728 1.95678
ltibia 57.1192 0 0
lfoot 1.79998 -8.64307 0
ltoes -12.7248 0 0
rfemur 6.57804 -3.29668 17.2001
rtibia 49.9396 0 0
rfoot -29.34 -29.2189 0
rtoes -28.9873 0 0
lowerback 14.0107 3.48062 7.52702
upperback -0.259008 6.38453 4.76881
thorax -7.91686 2.93184 -0.42366
lowerneck -4.25474 11.6626 4.20371
upperneck 7.78974 15.6568 -3.3961
head 3.66034 7.79031 -1.04355
lclavicle -1.90822e-14 -2.62995e-14 0
lhumerus 78.3679 18.5193 106.305
lradius -1.82743 0 0
lwrist -93.2572 0 0
lhand -36.6852 44.4034 0
lfingers 7.12502 0 0
lthumb -9.77073 74.2588 0
rclavicle -1.90822e-14 -2.62995e-14 0
rhumerus -81.0262 10.392 -86.0909
rradius 134.641 0 0
rwrist -170.221 0 0
rhand -72.2713 -358.135 0
rfingers 7.12502 0 0
rthumb -43.8077 285.961 0
1840
root 7.11225 13.8389 27.7962 1072.1 54.5999 350.73
lfemur -54.0122 24.6496 1.93128
ltibia 58.8632 0 0
lfoot 0.502809 -8.70952 0
ltoes -14.3559 0 0
rfemur 6.47099 -3.34538 17.2229
rtibia 49.5049 0 0
rfoot -28.872 -29.4103 0
rtoes -29.2191 0 0
lowerback 14.0118 3.6692 7.4155
upperback -0.305507 6.62211 4.80001
thorax -7.97355 3.0501 -0.377864
lowerneck -4.04945 11.8078 4.3555
upperneck 7.64428 15.8565 -3.527
head 3.63631 7.88861 -1.11115
lclavicle -2.08056e-14 -2.92732e-14 0
lhumerus 76.7681 18.2812 106.676
lradius -0.574086 0 0
lwrist -92.8308 0 0
lhand -36.041 43.9855 0
lfingers 7.12502 0 0
lthumb -9.14894 73.8512 0
rclavicle -2.08056e-14 -2.92732e-14 0
rhumerus -80.3624 10.5591 -85.917
rradius 133.783 0 0
rwrist -165.551 0 0
rhand -70.56 -366.149 0
rfingers 7.12502 0 0
rthumb -42.1825 285.271 0
1841
root 7.13003 13.8332 27.8073 1070.53 54.3164 348.84
lfemur -54.2615 25.454 1.90196
ltibia 60.7098 0 0
lfoot -0.867167 -8.75977 0
ltoes -16.0794 0 0
rfemur 6.33089 -3.42159 17.2553
rtibia 49.0529 0 0
rfoot -28.3697 -29.6068 0
rtoes -29.4477 0 0
lowerback 14.0133 3.86929 7.2925
upperback -0.354997 6.87302 4.82979
thorax -8.03419 3.17512 -0.330047
lowerneck -3.8327 11.9468 4.50469
upperneck 7.48862 16.0481 -3.65214
head 3.61057 7.98302 -1.17748
lclavicle -2.26698e-14 -3.23742e-14 0
lhumerus 74.9768 18.0018 107.065
lradius 0.821128 0 0
lwrist -92.3005 0 0
lhand -35.3473 43.5352 0
lfingers 7.12502 0 0
lthumb -8.4794 73.4116 0
rclavicle -2.26698e-14 -3.23742e-14 0
rhumerus -79.5905 10.7292 -85.7063
rradius 132.81 0 0
rwrist -160.502 0 0
rhand -68.7127 -374.323 0
rfingers 7.12502 0 0
rthumb -40.4276 284.292 0
1842
root 7.14166 13.8285 27.819 1068.77 54.0331 346.752
lfemur -54.5079 26.2863 1.86872
ltibia 62.6615 0 0
lfoot -2.31164 -8.79321 0
ltoes -17.8973 0 0
rfemur 6.15667 -3.52621 17.2974
rtibia 48.5831 0 0
rfoot -27.8324 -29.8085 0
rtoes -29.6728 0 0
lowerback 14.0151 4.08115 7.15768
upperback -0.40755 7.13757 4.85808
thorax -8.09888 3.30704 -0.280171
lowerneck -3.60423 12.0794 4.65111
upperneck 7.3225 16.2313 -3.77123
head 3.58308 8.07334 -1.24249
lclavicle -2.46789e-14 -3.56048e-14 0
lhumerus 72.9885 17.6798 107.473
lradius 2.36228 0 0
lwrist -91.6633 0 0
lhand -34.6029 43.0518 0
lfingers 7.12502 0 0
lthumb -7.76086 72.9392 0
rclavicle -2.46789e-14 -3.56048e-14 0
rhumerus -78.7074 10.9023 -85.4578
rradius 131.719 0 0
rwrist -155.065 0 0
rhand -66.7255 -382.656 0
rfingers 7.12502 0 0
rthumb -38.5394 283.015 0
1843
root 7.1469 13.8247 27.8314 1066.83 53.7502 344.459
lfemur -54.7513 27.147 1.83144
ltibia 64.7208 0 0
lfoot -3.8323 -8.80922 0
ltoes -19.8118 0 0
rfemur 5.94728 -3.66016 17.3496
rtibia 48.0953 0 0
rfoot -27.259 -30.0154 0
rtoes -29.8941 0 0
lowerback 14.0171 4.30508 7.01074
upperback -0.463239 7.41607 4.88483
thorax -8.16772 3.44604 -0.228197
lowerneck -3.36377 12.2053 4.79458
upperneck 7.14566 16.4058 -3.88402
head 3.5538 8.1594 -1.30607
lclavicle -2.68371e-14 -3.89673e-14 0
lhumerus 70.7977 17.3138 107.898
lradius 4.05345 0 0
lwrist -90.9158 0 0
lhand -33.8064 42.5343 0
lfingers 7.12502 0 0
lthumb -6.99206 72.433 0
rclavicle -2.68371e-14 -3.89673e-14 0
rhumerus -77.7097 11.0783 -85.1705
rradius 130.505 0 0
rwrist -149.23 0 0
rhand -64.5946 -391.149 0
rfingers 7.12502 0 0
rthumb -36.5141 281.432 0
1844
root 7.14556 13.8219 27.8444 1064.69 53.4678 341.957
lfemur -54.9915 28.0366 1.79001
ltibia 66.89 0 0
lfoot -5.43084 -8.80716 0
ltoes -21.8251 0 0
rfemur 5.70166 -3.82435 17.4123
rtibia 47.589 0 0
rfoot -26.6487 -30.2275 0
rtoes -30.1114 0 0
lowerback 14.0195 4.54134 6.85136
upperback -0.522137 7.70884 4.90996
thorax -8.24079 3.59227 -0.174089
lowerneck -3.11105 12.3242 4.93493
upperneck 6.95784 16.571 -3.99023
head 3.52268 8.241 -1.36815
lclavicle -2.91485e-14 -4.24641e-14 0
lhumerus 68.3988 16.9026 108.343
lradius 5.89869 0 0
lwrist -90.0546 0 0
lhand -32.9566 41.982 0
lfingers 7.12502 0 0
lthumb -6.17177 71.8924 0
rclavicle -2.91485e-14 -4.24641e-14 0
rhumerus -76.5942 11.2572 -84.8431
rradius 129.166 0 0
rwrist -142.986 0 0
rhand -62.3163 -399.802 0
rfingers 7.12502 0 0
rthumb -34.3482 279.532 0
1845
root 7.13741 13.8202 27.8581 1062.35 53.1862 339.238
lfemur -55.2281 28.9555 1.74433
ltibia 69.1717 0 0
lfoot -7.10894 -8.78643 0
ltoes -23.9394 0 0
rfemur 5.41875 -4.0197 17.4857
rtibia 47.064 0 0
rfoot -26.0008 -30.445 0
rtoes -30.3244 0 0
lowerback 14.0222 4.79021 6.67923
upperback -0.584317 8.01618 4.9334
thorax -8.3182 3.74588 -0.117808
lowerneck -2.84579 12.4358 5.07197
upperneck 6.7588 16.7267 -4.08959
head 3.48969 8.31796 -1.42865
lclavicle -3.16173e-14 -4.60976e-14 0
lhumerus 65.7863 16.4448 108.807
lradius 7.90208 0 0
lwrist -89.0764 0 0
lhand -32.0521 41.3938 0
lfingers 7.12502 0 0
lthumb -5.29874 71.3163 0
rclavicle -3.16173e-14 -4.60976e-14 0
rhumerus -75.3576 11.4391 -84.4746
rradius 127.698 0 0
rwrist -136.323 0 0
rhand -59.8867 -408.617 0
rfingers 7.12502 0 0
rthumb -32.038 277.305 0
1846
root 7.12223 13.8195 27.8725 1059.81 52.9056 336.299
lfemur -55.4609 29.9042 1.69428
ltibia 71.5683 0 0
lfoot -8.86829 -8.7464 0
ltoes -26.1567 0 0
rfemur 5.09749 -4.24711 17.5701
rtibia 46.52 0 0
rfoot -25.3142 -30.6679 0
rtoes -30.5328 0 0
lowerback 14.0252 5.05197 6.49402
upperback -0.649853 8.3384 4.9551
thorax -8.40004 3.90704 -0.0593166
lowerneck -2.56773 12.5399 5.20553
upperneck 6.54827 16.8724 -4.18184
head 3.45479 8.39011 -1.48748
lclavicle -3.42476e-14 -4.98701e-14 0
lhumerus 62.9545 15.9393 109.291
lradius 10.0677 0 0
lwrist -87.9781 0 0
lhand -31.0917 40.7691 0
lfingers 7.12502 0 0
lthumb -4.37172 70.704 0
rclavicle -3.42476e-14 -4.98701e-14 0
rhumerus -73.9966 11.624 -84.064
rradius 126.097 0 0
rwrist -129.23 0 0
rhand -57.3021 -417.593 0
rfingers 7.12502 0 0
rthumb -29.5799 274.744 0
1847
root 7.1586 13.8126 27.8759 1059.91 52.7785 336.315
lfemur -55.5902 30.1286 1.70285
ltibia 71.951 0 0
lfoot -9.16147 -8.8162 0
ltoes -26.5254 0 0
rfemur 5.18701 -4.16324 17.5423
rtibia 46.3888 0 0
rfoot -25.2527 -30.727 0
rtoes -30.6511 0 0
lowerback 14.0211 5.09128 6.49859
upperback -0.658233 8.39379 4.9764
thorax -8.40612 3.93399 -0.0497409
lowerneck -2.51627 12.6424 5.28963
upperneck 6.52693 17.0124 -4.27171
head 3.45366 8.45884 -1.5251
lclavicle -3.48388e-14 -5.05458e-14 0
lhumerus 63.0005 15.9801 109.36
lradius 10.0574 0 0
lwrist -88.1904 0 0
lhand -31.0025 40.7041 0
lfingers 7.12502 0 0
lthumb -4.28562 70.6423 0
rclavicle -3.48388e-14 -5.05458e-14 0
rhumerus -74.153 11.6963 -84.1874
rradius 126.135 0 0
rwrist -128.407 0 0
rhand -56.8814 -420.448 0
rfingers 7.12502 0 0
rthumb -29.1798 275.659 0
